<svg width="705" height="435" viewBox="0 0 705 435" fill="none" xmlns="http://www.w3.org/2000/svg">
<path d="M0 83H464C561.202 83 640 161.798 640 259V259C640 356.202 561.202 435 464 435H0V83Z" fill="#5368DF"/>
<mask id="mask0" style="mask-type:alpha" maskUnits="userSpaceOnUse" x="169" y="0" width="536" height="346">
<path d="M697 0H177C172.582 0 169 3.58172 169 8V338C169 342.418 172.582 346 177 346H697C701.418 346 705 342.418 705 338V8C705 3.58172 701.418 0 697 0Z" fill="white"/>
</mask>
<g mask="url(#mask0)">
<path d="M697 0H177C172.582 0 169 3.58172 169 8V338C169 342.418 172.582 346 177 346H697C701.418 346 705 342.418 705 338V8C705 3.58172 701.418 0 697 0Z" fill="#E8EAF6"/>
<path fill-rule="evenodd" clip-rule="evenodd" d="M165.47 0.196991H712.47V59.197H165.47V0.196991Z" fill="#242A45"/>
<path opacity="0.245" d="M207.47 46.197C216.307 46.197 223.47 39.0335 223.47 30.197C223.47 21.3604 216.307 14.197 207.47 14.197C198.633 14.197 191.47 21.3604 191.47 30.197C191.47 39.0335 198.633 46.197 207.47 46.197Z" fill="white"/>
<path opacity="0.104" d="M668.47 46.197C677.307 46.197 684.47 39.0335 684.47 30.197C684.47 21.3604 677.307 14.197 668.47 14.197C659.633 14.197 652.47 21.3604 652.47 30.197C652.47 39.0335 659.633 46.197 668.47 46.197Z" fill="white"/>
<path opacity="0.75" d="M355.47 20.197H241.47C239.813 20.197 238.47 21.5401 238.47 23.197C238.47 24.8538 239.813 26.197 241.47 26.197H355.47C357.127 26.197 358.47 24.8538 358.47 23.197C358.47 21.5401 357.127 20.197 355.47 20.197Z" fill="white"/>
<path opacity="0.25" d="M299.47 34.197H241.47C239.813 34.197 238.47 35.5401 238.47 37.197C238.47 38.8538 239.813 40.197 241.47 40.197H299.47C301.127 40.197 302.47 38.8538 302.47 37.197C302.47 35.5401 301.127 34.197 299.47 34.197Z" fill="white"/>
<path d="M479 93H234C229.582 93 226 96.5817 226 101V401C226 405.418 229.582 409 234 409H479C483.418 409 487 405.418 487 401V101C487 96.5817 483.418 93 479 93Z" fill="white"/>
<path d="M641 93H529C524.582 93 521 96.5817 521 101V401C521 405.418 524.582 409 529 409H641C645.418 409 649 405.418 649 401V101C649 96.5817 645.418 93 641 93Z" fill="white"/>
<path opacity="0.5" d="M421.47 131.197H307.47C305.813 131.197 304.47 132.54 304.47 134.197C304.47 135.854 305.813 137.197 307.47 137.197H421.47C423.127 137.197 424.47 135.854 424.47 134.197C424.47 132.54 423.127 131.197 421.47 131.197Z" fill="#242A45"/>
<path d="M273.47 157.197C282.307 157.197 289.47 150.034 289.47 141.197C289.47 132.36 282.307 125.197 273.47 125.197C264.633 125.197 257.47 132.36 257.47 141.197C257.47 150.034 264.633 157.197 273.47 157.197Z" fill="#F98E5D"/>
<path opacity="0.25" d="M626.47 115.197H544.47C542.813 115.197 541.47 116.54 541.47 118.197C541.47 119.854 542.813 121.197 544.47 121.197H626.47C628.127 121.197 629.47 119.854 629.47 118.197C629.47 116.54 628.127 115.197 626.47 115.197Z" fill="#242A45"/>
<path opacity="0.25" d="M626.47 135.197H544.47C542.813 135.197 541.47 136.54 541.47 138.197C541.47 139.854 542.813 141.197 544.47 141.197H626.47C628.127 141.197 629.47 139.854 629.47 138.197C629.47 136.54 628.127 135.197 626.47 135.197Z" fill="#242A45"/>
<path opacity="0.25" d="M626.47 155.197H544.47C542.813 155.197 541.47 156.54 541.47 158.197C541.47 159.854 542.813 161.197 544.47 161.197H626.47C628.127 161.197 629.47 159.854 629.47 158.197C629.47 156.54 628.127 155.197 626.47 155.197Z" fill="#242A45"/>
<path opacity="0.25" d="M626.47 175.197H544.47C542.813 175.197 541.47 176.54 541.47 178.197C541.47 179.854 542.813 181.197 544.47 181.197H626.47C628.127 181.197 629.47 179.854 629.47 178.197C629.47 176.54 628.127 175.197 626.47 175.197Z" fill="#242A45"/>
<path opacity="0.25" d="M626.47 209.197H544.47C542.813 209.197 541.47 210.54 541.47 212.197C541.47 213.854 542.813 215.197 544.47 215.197H626.47C628.127 215.197 629.47 213.854 629.47 212.197C629.47 210.54 628.127 209.197 626.47 209.197Z" fill="#242A45"/>
<path opacity="0.25" d="M626.47 229.197H544.47C542.813 229.197 541.47 230.54 541.47 232.197C541.47 233.854 542.813 235.197 544.47 235.197H626.47C628.127 235.197 629.47 233.854 629.47 232.197C629.47 230.54 628.127 229.197 626.47 229.197Z" fill="#242A45"/>
<path opacity="0.25" d="M626.47 249.197H544.47C542.813 249.197 541.47 250.54 541.47 252.197C541.47 253.854 542.813 255.197 544.47 255.197H626.47C628.127 255.197 629.47 253.854 629.47 252.197C629.47 250.54 628.127 249.197 626.47 249.197Z" fill="#242A45"/>
<path opacity="0.25" d="M365.47 145.197H307.47C305.813 145.197 304.47 146.54 304.47 148.197C304.47 149.854 305.813 151.197 307.47 151.197H365.47C367.127 151.197 368.47 149.854 368.47 148.197C368.47 146.54 367.127 145.197 365.47 145.197Z" fill="#242A45"/>
<path d="M273.47 213.197C282.307 213.197 289.47 206.034 289.47 197.197C289.47 188.36 282.307 181.197 273.47 181.197C264.633 181.197 257.47 188.36 257.47 197.197C257.47 206.034 264.633 213.197 273.47 213.197Z" fill="#6AC6D6"/>
<path opacity="0.5" d="M421.47 187.197H307.47C305.813 187.197 304.47 188.54 304.47 190.197C304.47 191.854 305.813 193.197 307.47 193.197H421.47C423.127 193.197 424.47 191.854 424.47 190.197C424.47 188.54 423.127 187.197 421.47 187.197Z" fill="#242A45"/>
<path opacity="0.25" d="M365.47 201.197H307.47C305.813 201.197 304.47 202.54 304.47 204.197C304.47 205.854 305.813 207.197 307.47 207.197H365.47C367.127 207.197 368.47 205.854 368.47 204.197C368.47 202.54 367.127 201.197 365.47 201.197Z" fill="#242A45"/>
<path d="M273.47 269.197C282.307 269.197 289.47 262.034 289.47 253.197C289.47 244.36 282.307 237.197 273.47 237.197C264.633 237.197 257.47 244.36 257.47 253.197C257.47 262.034 264.633 269.197 273.47 269.197Z" fill="#A47ED4"/>
<path opacity="0.5" d="M421.47 243.197H307.47C305.813 243.197 304.47 244.54 304.47 246.197C304.47 247.854 305.813 249.197 307.47 249.197H421.47C423.127 249.197 424.47 247.854 424.47 246.197C424.47 244.54 423.127 243.197 421.47 243.197Z" fill="#242A45"/>
<path opacity="0.25" d="M365.47 257.197H307.47C305.813 257.197 304.47 258.54 304.47 260.197C304.47 261.854 305.813 263.197 307.47 263.197H365.47C367.127 263.197 368.47 261.854 368.47 260.197C368.47 258.54 367.127 257.197 365.47 257.197Z" fill="#242A45"/>
<path d="M273.47 325.197C282.307 325.197 289.47 318.034 289.47 309.197C289.47 300.36 282.307 293.197 273.47 293.197C264.633 293.197 257.47 300.36 257.47 309.197C257.47 318.034 264.633 325.197 273.47 325.197Z" fill="#EC7878"/>
<path opacity="0.5" d="M421.47 299.197H307.47C305.813 299.197 304.47 300.54 304.47 302.197C304.47 303.854 305.813 305.197 307.47 305.197H421.47C423.127 305.197 424.47 303.854 424.47 302.197C424.47 300.54 423.127 299.197 421.47 299.197Z" fill="#242A45"/>
<path opacity="0.25" d="M365.47 313.197H307.47C305.813 313.197 304.47 314.54 304.47 316.197C304.47 317.854 305.813 319.197 307.47 319.197H365.47C367.127 319.197 368.47 317.854 368.47 316.197C368.47 314.54 367.127 313.197 365.47 313.197Z" fill="#242A45"/>
</g>
</svg>
