<svg width="684" height="435" viewBox="0 0 684 435" fill="none" xmlns="http://www.w3.org/2000/svg">
<path d="M0 83H464C561.202 83 640 161.798 640 259V259C640 356.202 561.202 435 464 435H0V83Z" fill="#5368DF"/>
<g clip-path="url(#clip0)">
<path d="M586 0H252C247.582 0 244 3.58172 244 8V338C244 342.418 247.582 346 252 346H586C590.418 346 594 342.418 594 338V8C594 3.58172 590.418 0 586 0Z" fill="#E8EAF6"/>
<mask id="mask0" style="mask-type:alpha" maskUnits="userSpaceOnUse" x="244" y="0" width="350" height="387">
<path d="M586 0H252C247.582 0 244 4.00615 244 8.94798V378.052C244 382.994 247.582 387 252 387H586C590.418 387 594 382.994 594 378.052V8.94798C594 4.00615 590.418 0 586 0Z" fill="white"/>
</mask>
<g mask="url(#mask0)">
<path fill-rule="evenodd" clip-rule="evenodd" d="M240 0H594V59H240V0Z" fill="#242A45"/>
<path opacity="0.245" d="M282.47 46.197C291.307 46.197 298.47 39.0336 298.47 30.197C298.47 21.3605 291.307 14.197 282.47 14.197C273.633 14.197 266.47 21.3605 266.47 30.197C266.47 39.0336 273.633 46.197 282.47 46.197Z" fill="white"/>
<path opacity="0.75" d="M430.47 20.197H316.47C314.813 20.197 313.47 21.5402 313.47 23.197C313.47 24.8539 314.813 26.197 316.47 26.197H430.47C432.127 26.197 433.47 24.8539 433.47 23.197C433.47 21.5402 432.127 20.197 430.47 20.197Z" fill="white"/>
<path opacity="0.25" d="M374.47 34.197H316.47C314.813 34.197 313.47 35.5402 313.47 37.197C313.47 38.8539 314.813 40.197 316.47 40.197H374.47C376.127 40.197 377.47 38.8539 377.47 37.197C377.47 35.5402 376.127 34.197 374.47 34.197Z" fill="white"/>
</g>
<path d="M500 85H279C274.582 85 271 88.5817 271 93V111C271 115.418 274.582 119 279 119H500C504.418 119 508 115.418 508 111V93C508 88.5817 504.418 85 500 85Z" fill="white"/>
<path d="M500 133H279C274.582 133 271 136.582 271 141V159C271 163.418 274.582 167 279 167H500C504.418 167 508 163.418 508 159V141C508 136.582 504.418 133 500 133Z" fill="white"/>
<path d="M500 181H279C274.582 181 271 184.582 271 189V207C271 211.418 274.582 215 279 215H500C504.418 215 508 211.418 508 207V189C508 184.582 504.418 181 500 181Z" fill="white"/>
<path d="M500 229H279C274.582 229 271 232.582 271 237V255C271 259.418 274.582 263 279 263H500C504.418 263 508 259.418 508 255V237C508 232.582 504.418 229 500 229Z" fill="white"/>
<path d="M500 277H279C274.582 277 271 280.582 271 285V303C271 307.418 274.582 311 279 311H500C504.418 311 508 307.418 508 303V285C508 280.582 504.418 277 500 277Z" fill="white"/>
<mask id="mask1" style="mask-type:alpha" maskUnits="userSpaceOnUse" x="334" y="83" width="350" height="296">
<path d="M684 83.048H334.219V379H684V83.048Z" fill="white"/>
</mask>
<g mask="url(#mask1)">
<path fill-rule="evenodd" clip-rule="evenodd" d="M335.293 333.34C335.963 335.358 337.008 337.338 338.467 339.275C363.669 372.749 457.843 383.907 550.691 377.089C599.167 373.527 633.361 352.563 654.972 333.339C659.658 329.173 664.117 324.759 668.332 320.117C673.001 314.972 676.645 309.257 679.242 303.222C686.889 285.444 685.416 264.906 674.119 248.061C664.542 233.785 651.397 223.237 644.606 211.518C631.674 189.2 700.043 132.782 655.552 97.138C639.848 84.554 606.392 81.65 569.89 83.602C525.462 85.98 476.525 95.557 449.606 103.647C393.894 120.384 359.026 144.627 351.067 171.903C343.109 199.179 364.378 211.521 382.947 237.557C400.442 262.083 324.394 300.554 335.293 333.34" fill="#3A499E"/>
<path fill-rule="evenodd" clip-rule="evenodd" d="M429.451 173.872L446.436 171L449 186.799L428 193L429.451 173.872Z" fill="#306299"/>
<path fill-rule="evenodd" clip-rule="evenodd" d="M447 172.118C447 172.118 460.176 171.77 474 166L467.504 178.254L448.751 184L447 172.118Z" fill="#FA9E89"/>
<mask id="mask2" style="mask-type:alpha" maskUnits="userSpaceOnUse" x="524" y="85" width="158" height="220">
<path d="M682 85.048H524.175V304.892H682V85.048Z" fill="white"/>
</mask>
<g mask="url(#mask2)">
<path opacity="0.152" fill-rule="evenodd" clip-rule="evenodd" d="M524.934 137.186C533.046 177.345 670.94 238.876 677.57 304.892C684.688 287.14 683.317 266.634 672.8 249.814C663.886 235.559 651.65 225.027 645.329 213.325C633.29 191.043 696.934 134.707 655.519 99.117C640.9 86.552 609.758 83.652 575.779 85.602C565.435 87.966 517.615 100.933 524.934 137.186Z" fill="white"/>
</g>
<path opacity="0.149" fill-rule="evenodd" clip-rule="evenodd" d="M332.18 326C331.195 333.866 334.52 339.336 335.82 341.227C358.249 373.899 480.314 384.79 562.95 378.135C606.096 374.659 641.455 352.42 663 327.915L332.18 326Z" fill="black"/>
<path opacity="0.128" fill-rule="evenodd" clip-rule="evenodd" d="M610.373 329.812C610.373 329.812 620.45 330.422 620.295 333.472C620.14 336.522 613.784 343.23 613.784 343.23L623.293 339.825L652 338.732L648.9 341.401C648.9 341.401 625.773 342.468 624.74 343.281C623.706 344.094 610.476 354.057 608.203 354.463C605.929 354.87 461.515 354.688 461.515 354.688C461.515 354.688 446.657 355.277 444.176 350.702C441.696 346.128 432.704 346.432 430.223 350.397C427.743 354.362 428.087 369 428.087 369C428.087 369 421.294 367.227 420.921 367.069C397.356 357.106 371 326 371 326L610.373 329.812V329.812Z" fill="black"/>
<path fill-rule="evenodd" clip-rule="evenodd" d="M641 290.695L626.55 339.858C626.55 339.858 624.494 342.302 623 340.038L632.714 290L641 290.695ZM660.866 289L668 322.138L664.603 326L655 289.954L660.866 289Z" fill="#162F44"/>
<path fill-rule="evenodd" clip-rule="evenodd" d="M448.507 300.082L442.482 334.282L441.483 339.951L443.675 340.273L443.831 340.297L448.619 341C448.619 341 464.59 301.656 465.949 292.213C467.31 282.77 440.804 245 440.804 245L412.036 247.448C411.275 255.667 422.78 271.159 433.063 283.218C441.164 292.717 448.507 300.082 448.507 300.082" fill="#F4F2F9"/>
<path fill-rule="evenodd" clip-rule="evenodd" d="M448.12 298.535L441.243 338.302L443.389 338.623L443.462 339L443.542 338.648C444.417 334.818 454.682 300.911 454.994 294C455.327 286.674 440.967 264 440.967 264L433 281.714C440.93 291.188 448.12 298.534 448.12 298.534" fill="#E0DFEA"/>
<path fill-rule="evenodd" clip-rule="evenodd" d="M410 249L438.667 246.613L440 198.886C440 198.886 433 174 425.333 174C420.78 174 416.347 175.804 413.633 180.195C411.78 183.198 410.73 187.415 411 193.091C411.61 205.868 410.27 241.998 410.033 248.113C410.013 248.69 410 249 410 249" fill="#6397D9"/>
<path fill-rule="evenodd" clip-rule="evenodd" d="M417.885 245.276L417.347 188.458L424 174.938L416.237 174L413.508 177.21C411.718 180.213 410.705 184.43 410.966 190.104C411.555 202.878 410.229 239.886 410 246L417.885 245.276V245.276Z" fill="#8BBFF7"/>
<path fill-rule="evenodd" clip-rule="evenodd" d="M418 190L439.017 230L439.563 212.009L440 197.411L422.476 190H418Z" fill="#306299"/>
<path fill-rule="evenodd" clip-rule="evenodd" d="M471.671 353H600.33C605.119 353 609.001 349.092 609.001 344.27V123.73C609.001 118.908 605.119 115 600.33 115H471.67C466.881 115 462.999 118.908 462.999 123.73V344.27C462.999 349.092 466.881 353 471.67 353" fill="white"/>
<path fill-rule="evenodd" clip-rule="evenodd" d="M471 146.29V234.71C471 236.528 472.456 238 474.253 238H597.747C599.544 238 601 236.528 601 234.71V146.29C601 144.472 599.544 143 597.747 143H474.253C472.456 143 471 144.472 471 146.29Z" fill="#E4DCF1"/>
<path fill-rule="evenodd" clip-rule="evenodd" d="M535.147 167L536.699 168.183L540 182.554L539.929 184.921L534.702 185C534.347 185.005 533.989 184.935 533.672 184.75C532.177 183.872 531.539 181.425 532.364 179.257C532.808 178.091 533.945 176.027 534.077 175.115C534.391 172.931 535.147 167 535.147 167" fill="#8E2B43"/>
<path fill-rule="evenodd" clip-rule="evenodd" d="M508 241L562.224 240.792L564.019 240.786C564.019 240.786 570.506 210.137 560.003 198.325C557.445 195.451 554.12 193.332 550.497 191.955C539.224 187.658 525.044 190.5 522.004 199.921C517.988 212.372 508 241 508 241Z" fill="#4EC9B4"/>
<path fill-rule="evenodd" clip-rule="evenodd" d="M550.16 192.489C550.16 192.489 547.945 198.515 543.057 199.783C538.169 201.052 532.568 196.559 533.027 191.326C533.027 191.326 537.711 190.639 538.474 188.366C539.402 185.606 538.78 185.512 538.78 185.512C538.78 185.512 536.947 182.022 536.336 179.486C535.725 176.949 536.641 167.116 540.918 166.166C543.623 165.564 547.945 166.483 551 170.923C551 170.923 549.472 179.486 547.334 183.609C545.195 187.732 544.126 189.635 550.16 192.489Z" fill="#FA9E89"/>
<path opacity="0.184" fill-rule="evenodd" clip-rule="evenodd" d="M474.167 116.013L607 302.239V344.483C607 349.187 603.3 353 598.737 353H478.573C473.286 353 469 348.582 469 343.131V119.827C469 116.898 471.33 115.871 474.167 116.013" fill="#F4F2F9"/>
<path fill-rule="evenodd" clip-rule="evenodd" d="M514 222.442L507.018 192L496 193.816L506.684 238L514 222.442Z" fill="#4EC9B4"/>
<path fill-rule="evenodd" clip-rule="evenodd" d="M504.8 191.137L504.2 188.031C504.2 188.031 506 186.847 505.7 185.072C505.4 183.297 506 179.155 506 179.155C506 179.155 505.043 178.508 504.425 179.673C503.985 180.502 503.3 182.41 503.3 182.41C503.3 182.41 501.004 176.244 500.474 174.62C500.249 173.929 500.022 172.853 499.499 173.017C499.224 173.103 499.324 173.732 499.371 174.347C499.511 176.191 500.299 179.131 500.299 179.131L499.899 179.365L498.236 174.089C498.163 173.833 498.043 173.445 497.774 173.424C497.536 173.404 497.299 173.534 497.299 174.126C497.299 175.31 498.574 180.203 498.574 180.203L498.255 180.422L496.32 176.144C496.187 175.821 495.707 175.849 495.625 176.188C495.56 176.456 495.579 176.838 495.798 177.38C496.398 178.86 496.998 181.226 496.998 181.226L496.848 181.399L495.798 179.229C495.61 178.882 495.149 178.659 495.015 179.029C494.827 179.547 496.473 183.999 496.473 184.296C496.473 184.592 497.599 188.622 498.799 188.918C499.999 189.214 500.074 192 500.074 192L504.8 191.137V191.137Z" fill="#FA9E89"/>
<path fill-rule="evenodd" clip-rule="evenodd" d="M574.351 264H596.65C597.948 264 599.001 262.928 599.001 261.606V258.394C599.001 257.072 597.948 256 596.65 256H574.352C573.054 256 572.001 257.072 572.001 258.394V261.606C572.001 262.928 573.054 264 574.352 264H574.351ZM542.352 264H564.65C565.948 264 567.001 262.928 567.001 261.606V258.394C567.001 257.072 565.948 256 564.65 256H542.352C541.054 256 540.001 257.072 540.001 258.394V261.606C540.001 262.928 541.054 264 542.352 264ZM508.352 264H530.65C531.948 264 533.001 262.928 533.001 261.606V258.394C533.001 257.072 531.948 256 530.65 256H508.353C507.054 256 506.001 257.072 506.001 258.394V261.606C506.001 262.928 507.054 264 508.353 264H508.352ZM476.353 264H498.65C499.948 264 501.001 262.928 501.001 261.606V258.394C501.001 257.072 499.948 256 498.65 256H476.352C475.054 256 474.001 257.072 474.001 258.394V261.606C474.001 262.928 475.054 264 476.352 264" fill="#FFDEDD"/>
<path fill-rule="evenodd" clip-rule="evenodd" d="M478.547 283H596.453C597.86 283 599 281.92 599 280.59V277.41C599 276.08 597.86 275 596.453 275H478.547C477.14 275 476 276.08 476 277.41V280.59C476 281.92 477.14 283 478.547 283ZM596.453 299C597.86 299 599 297.92 599 296.59V293.41C599 292.08 597.86 291 596.453 291H478.547C477.14 291 476 292.08 476 293.41V296.59C476 297.92 477.14 299 478.547 299H596.453ZM478.547 315H596.453C597.86 315 599 313.92 599 312.59V309.41C599 308.08 597.86 307 596.453 307H478.547C477.14 307 476 308.08 476 309.41V312.59C476 313.92 477.14 315 478.547 315ZM478.547 328H596.453C597.86 328 599 326.92 599 325.59V322.41C599 321.08 597.86 320 596.453 320H478.547C477.14 320 476 321.08 476 322.41V325.59C476 326.92 477.14 328 478.547 328Z" fill="#F4F2F9"/>
<path fill-rule="evenodd" clip-rule="evenodd" d="M553.222 163.321C553.222 163.321 546.922 154.473 535.032 159.596C523.144 164.718 536.049 173.1 536.049 173.1C536.049 173.1 536.303 169.84 538.183 168.909L538.03 171.806L544.686 172.971L545.753 170.177L546.439 173.359L549.792 174.6C549.792 174.6 547.049 184.224 545.448 185.621C545.448 185.621 544.762 187.871 544.991 188.337C545.219 188.803 555.355 191.364 556.651 189.036C557.947 186.708 555.279 183.448 554.441 181.275C553.603 179.102 555.965 167.564 553.221 163.321" fill="#FC516B"/>
<path fill-rule="evenodd" clip-rule="evenodd" d="M582.352 139H599.648C600.947 139 602 137.657 602 136C602 134.343 600.947 133 599.648 133H582.352C581.053 133 580 134.343 580 136C580 137.657 581.053 139 582.352 139Z" fill="#E4DCF1"/>
<path fill-rule="evenodd" clip-rule="evenodd" d="M556 211C556 211 553.336 230.286 550.29 238H534.23C534.23 238 531.582 229.862 544.277 227.2C553.107 225.349 556 211 556 211ZM524.389 206C524.389 206 521.129 216 521.741 219C522.351 222 525 224.2 525 226.2C525 228.2 523.37 235.8 523.37 235.8L514 236C514 236 515.556 235.734 519.093 232.95C524.491 228.7 519.857 219.325 521.003 214C521.603 211.206 524.389 206 524.389 206V206ZM514 221.772C514 221.772 513.787 230.155 512.085 228.865C510.383 227.575 511.447 215.108 509.958 210.809C508.468 206.509 504 192.752 504 192.752L507.83 192L514 221.772Z" fill="#44AD99"/>
<path fill-rule="evenodd" clip-rule="evenodd" d="M488.623 183.475C488.623 183.475 487.047 184.167 485.123 186.521C484.487 187.301 481.093 188.542 480.29 189.509C468.645 203.529 453.094 214.35 443.127 210.042C430.397 204.54 428 199.424 428 199.424L436.414 188.062C436.414 188.062 446.077 202.821 453.848 198.801C461.62 194.781 476.94 184.244 476.94 184.244L477.346 177.78C477.346 177.78 478.241 177.54 478.67 178.775C479.1 180.011 479.12 181.079 479.12 181.079L485.169 174.055C485.169 174.055 486.331 173.695 485.977 174.824C485.623 175.954 483.486 179.192 483.486 179.192C483.486 179.192 483.266 179.808 483.729 179.527C484.269 179.2 488.495 174.435 488.495 174.435C488.495 174.435 489.468 174.371 489.071 175.301C488.764 176.018 486.206 179.391 485.341 180.655C485.083 181.031 485.623 180.89 485.623 180.89L489.119 177.92C489.592 177.601 490.082 177.707 489.989 178.288C489.914 178.748 488.962 179.807 488.396 180.227C486.982 181.273 485.996 183.179 485.996 183.179L489.04 182.079C489.04 182.079 489.635 182.607 488.623 183.475V183.475ZM417 146.49L420.85 174.81L433.496 177C433.496 177 432.856 176.332 432.124 175.44C431.376 174.533 430.534 173.39 430.161 172.474C429.311 170.37 429.305 168.408 429.305 168.408C429.305 168.408 434.913 169.041 435.782 165.813C436.654 162.581 434.639 147.529 434.639 147.529C434.639 147.529 432.136 138.07 417 146.49Z" fill="#FA9E89"/>
<path fill-rule="evenodd" clip-rule="evenodd" d="M427.613 146.812C427.613 146.812 433.849 151.522 439.832 147.51C439.832 147.51 436.04 147.16 434.86 145.242C434.86 145.242 437.22 145.852 440 141.928C440 141.928 435.113 142.626 433.428 141.143C431.742 139.66 423.148 137.305 418.008 140.881C412.867 144.457 412.951 147.074 412.951 147.074C412.951 147.074 409.918 148.207 410.001 149.952C410.086 151.696 417.501 166 417.501 166L419.102 159.633C419.102 159.633 417.838 160.011 417.08 157.046C416.322 154.08 419.608 155.359 419.945 155.97C420.282 156.58 422.473 151.783 422.473 151.783L422.136 148.993C422.136 148.993 421.04 145.416 427.613 146.813" fill="#261F27"/>
<path fill-rule="evenodd" clip-rule="evenodd" d="M415.786 279.384C419.377 293.871 412.736 351.793 412.736 351.793L419.234 353C445.394 292.985 439.41 244 439.41 244L410 246.414C410 246.414 410.075 245.19 410.106 245.48C410.444 248.488 412.514 266.169 415.786 279.384" fill="white"/>
<path fill-rule="evenodd" clip-rule="evenodd" d="M448.27 337.076L455.823 342.935C455.823 342.935 458.798 342.576 459.371 343.951C459.943 345.326 460 346.881 460 346.881L452.104 347L439 341.799L441.06 336L448.27 337.076ZM418.45 354.34C418.45 354.34 421.122 358.662 423.815 362.192C424.72 363.378 426.932 363.893 427.793 366.787C428.533 369.277 427.053 371 427.053 371C427.053 371 422.088 370.106 418.634 367.043C415.181 363.979 410 358.106 410 358.106L411.418 353L418.449 354.34H418.45Z" fill="#6397D9"/>
<path fill-rule="evenodd" clip-rule="evenodd" d="M618 282C618 285.866 630.984 289 647 289C663.016 289 676 285.866 676 282C676 278.134 663.016 275 647 275C630.984 275 618 278.134 618 282Z" fill="#224A7D"/>
<path fill-rule="evenodd" clip-rule="evenodd" d="M618 281C618 284.866 630.984 288 647 288C663.016 288 676 284.866 676 281C676 277.134 663.016 274 647 274C630.984 274 618 277.134 618 281Z" fill="#6397D9"/>
<path fill-rule="evenodd" clip-rule="evenodd" d="M639 277C639 278.657 644.373 280 651 280C657.627 280 663 278.657 663 277C663 275.343 657.627 274 651 274C644.373 274 639 275.343 639 277ZM676 280V283.986C676 283.986 675.93 286.45 671 288L672.179 283.682C672.179 283.682 675.642 282.187 676 280Z" fill="#162F44"/>
<path fill-rule="evenodd" clip-rule="evenodd" d="M618.006 280V284.085C618.006 284.085 617.616 286.128 623 288L621.348 283.234C621.348 283.234 618.488 281.957 618.006 280Z" fill="#8CC5F2"/>
<path fill-rule="evenodd" clip-rule="evenodd" d="M637 267.038L638.968 274.728C639.456 276.642 641.391 278 643.621 278H647.854C649.439 278 650.879 277.315 651.754 276.228C652.06 275.848 652.295 275.415 652.446 274.95L654.152 269.637L655 267L637 267.038Z" fill="#FC516B"/>
<path fill-rule="evenodd" clip-rule="evenodd" d="M637 266C637 266.552 641.03 267 646 267C650.97 267 655 266.552 655 266C655 265.448 650.97 265 646 265C641.03 265 637 265.448 637 266Z" fill="#9B293F"/>
<path fill-rule="evenodd" clip-rule="evenodd" d="M649.406 276.657C649.052 276.794 648.718 276.91 648.406 277L650.516 276.676C650.811 276.267 651.033 275.81 651.173 275.326L652.789 269.718C652.87 269.448 653 269.018 653 269C653 269 648.785 270.242 645 269.818C646.231 269.982 649.31 270.23 651.168 270.138C651.275 270.131 651.381 270.148 651.481 270.187C651.58 270.227 651.669 270.287 651.742 270.365C651.815 270.443 651.87 270.536 651.903 270.638C651.936 270.74 651.946 270.847 651.932 270.953C651.698 272.61 651.027 276.027 649.406 276.657" fill="#F995A9"/>
<path fill-rule="evenodd" clip-rule="evenodd" d="M645 263.901L645.679 266.988L646.173 267C646.173 267 646.201 263.901 649.847 262C653.497 260.1 652.974 253 652.974 253L652.971 253.009C652.883 253.192 651.483 256.109 650.422 256.299C649.328 256.501 648.649 258.249 648.649 258.249C648.649 258.249 648.127 258.999 647.502 258.849C646.876 258.699 646.251 260.349 646.251 260.349L646.044 262.101L645 263.901V263.901Z" fill="#51A595"/>
<path fill-rule="evenodd" clip-rule="evenodd" d="M649.993 269.987C649.993 269.987 650.693 246.551 638.393 240C638.393 240 634.892 241.352 638.993 246.967C643.093 252.582 639.792 256.637 641.593 258.094C643.393 259.549 645.993 260.485 645.593 262.357C645.193 264.229 645.693 266.101 646.493 266.309C647.293 266.516 649.093 267.621 649.373 270L649.993 269.987V269.987Z" fill="#4EC9B4"/>
<path fill-rule="evenodd" clip-rule="evenodd" d="M650 265.8L650.04 266.988L650.578 267C650.578 267 650.608 263.901 654.572 262C658.54 260.1 657.972 253 657.972 253L657.968 253.009L657.632 254.077C657.632 260.527 653.909 261.864 652.42 262.725C650.931 263.586 650 265.8 650 265.8" fill="#41877A"/>
<path fill-rule="evenodd" clip-rule="evenodd" d="M430.185 177.105C430.185 177.105 419.633 177.277 418.691 176L418 177.898C418 177.898 426.36 182.455 432 180.522L430.185 177.105V177.105Z" fill="#306299"/>
<path fill-rule="evenodd" clip-rule="evenodd" d="M445 190.916L432.412 205C432.412 205 415.59 189.918 416.008 185.19C416.425 180.463 422.588 170.675 432.042 179.667C441.24 188.415 445 190.916 445 190.916Z" fill="#8CC5F2"/>
<path fill-rule="evenodd" clip-rule="evenodd" d="M412.565 352.654L415.131 353C415.131 353 427.157 310.53 423.201 279.153C422.012 269.719 417.857 246 417.857 246L410 246.737C410.318 249.76 412.357 266.592 415.426 279.874C418.793 294.436 412.566 352.654 412.566 352.654" fill="#F4F2F9"/>
<path fill-rule="evenodd" clip-rule="evenodd" d="M426.253 175.558C427.741 175.882 428.552 175.985 429 176C428.302 175.034 427.516 173.818 427.168 172.842C426.375 170.601 426.369 168.512 426.369 168.512C426.369 168.512 423.398 167.73 423.092 168.099C422.788 168.467 423.092 174.869 426.253 175.558" fill="#E6846F"/>
<path fill-rule="evenodd" clip-rule="evenodd" d="M572 179C572 189.492 580.048 198 589.973 198C594.129 198 597.954 196.509 601 194.004V163.996C597.954 161.49 594.13 160 589.973 160C580.048 160 572 168.508 572 179Z" fill="#CEC3E2"/>
<path fill-rule="evenodd" clip-rule="evenodd" d="M572 179.5C572 189.716 579.493 198 588.734 198C592.604 198 596.164 196.548 599 194.11V164.89C596.165 162.453 592.603 161 588.734 161C579.493 161 572 169.284 572 179.5Z" fill="#C3B8D8"/>
<path fill-rule="evenodd" clip-rule="evenodd" d="M546 196.096C546 196.096 547.985 194.992 548.298 194.791C548.612 194.592 552.688 195.693 558.124 201.307C563.557 206.921 558.854 211.631 561.152 214.637C563.453 217.645 561.259 223.96 560.108 228.272C558.958 232.582 560.108 237.994 560.108 237.994L560.168 238L561.989 237.994C561.989 237.994 568.573 209.126 557.914 197.999C555.318 195.293 551.944 193.296 548.267 192L546 196.096Z" fill="#44AD99"/>
</g>
</g>
<defs>
<clipPath id="clip0">
<rect width="440" height="380" fill="white" transform="translate(244)"/>
</clipPath>
</defs>
</svg>
